<svg width="50" height="45" viewBox="0 0 50 45" fill="none" xmlns="http://www.w3.org/2000/svg">
<path fill-rule="evenodd" clip-rule="evenodd" d="M27.22 16.8V22.38V24.24H29.14H34.9V27.96H29.14H27.22V29.82V35.4H23.38V29.82V27.96H21.46H15.7V24.24H21.46H23.38V22.38V16.8H27.22ZM29.0999 15H21.4999V22.4H13.8999V29.8H21.4999V37.2H29.0999V29.8H36.6999V22.4H29.0999V15Z" fill="#03ACF2"/>
<path fill-rule="evenodd" clip-rule="evenodd" d="M34.3461 7.5V3.75C34.2877 1.61719 32.7573 0 30.5843 0H19.0067C16.8337 0 15.6538 1.60547 15.6538 3.75V7.5H0.699951V45H49.2999V7.5H34.3461ZM17.5 3.83625C17.5 2.68875 17.8398 1.8 19.1054 1.8H30.4843C31.7031 1.8 32.5 2.66625 32.5 3.83625V7.2H17.5V3.83625ZM47.5 43.2H2.49995V9.6H47.5V43.2Z" fill="#03ACF2"/>
</svg>
